<mxfile host="app.diagrams.net" modified="2023-06-21T15:43:03.219Z" agent="Mozilla/5.0 (X11; Linux x86_64; rv:109.0) Gecko/20100101 Firefox/114.0" etag="AU-L4q3il_RBnjCjilqQ" version="21.5.0">
  <diagram name="Page-1" id="RAUu5xI-Dg7mPlQcd15Y">
    <mxGraphModel dx="1597" dy="876" grid="1" gridSize="10" guides="1" tooltips="1" connect="1" arrows="1" fold="1" page="1" pageScale="1" pageWidth="827" pageHeight="1169" math="0" shadow="0">
      <root>
        <mxCell id="0" />
        <mxCell id="1" parent="0" />
        <mxCell id="GVfHSsp1LPKBqe8zwPOD-1" value="" style="shape=flexArrow;endArrow=classic;html=1;rounded=0;fillColor=#a20025;strokeColor=#6F0000;" edge="1" parent="1">
          <mxGeometry width="50" height="50" relative="1" as="geometry">
            <mxPoint x="40" y="120" as="sourcePoint" />
            <mxPoint x="830" y="120" as="targetPoint" />
          </mxGeometry>
        </mxCell>
        <mxCell id="GVfHSsp1LPKBqe8zwPOD-2" value="T+0s" style="text;strokeColor=none;align=center;fillColor=none;html=1;verticalAlign=middle;whiteSpace=wrap;rounded=0;" vertex="1" parent="1">
          <mxGeometry x="30" y="90" width="60" height="30" as="geometry" />
        </mxCell>
        <mxCell id="GVfHSsp1LPKBqe8zwPOD-3" value="T+5s" style="text;strokeColor=none;align=center;fillColor=none;html=1;verticalAlign=middle;whiteSpace=wrap;rounded=0;" vertex="1" parent="1">
          <mxGeometry x="190" y="90" width="60" height="30" as="geometry" />
        </mxCell>
        <mxCell id="GVfHSsp1LPKBqe8zwPOD-4" value="T+10s" style="text;strokeColor=none;align=center;fillColor=none;html=1;verticalAlign=middle;whiteSpace=wrap;rounded=0;" vertex="1" parent="1">
          <mxGeometry x="350" y="90" width="60" height="30" as="geometry" />
        </mxCell>
        <mxCell id="GVfHSsp1LPKBqe8zwPOD-5" value="T+15s" style="text;strokeColor=none;align=center;fillColor=none;html=1;verticalAlign=middle;whiteSpace=wrap;rounded=0;" vertex="1" parent="1">
          <mxGeometry x="510" y="90" width="60" height="30" as="geometry" />
        </mxCell>
        <mxCell id="GVfHSsp1LPKBqe8zwPOD-6" value="T+20s" style="text;strokeColor=none;align=center;fillColor=none;html=1;verticalAlign=middle;whiteSpace=wrap;rounded=0;" vertex="1" parent="1">
          <mxGeometry x="670" y="90" width="60" height="30" as="geometry" />
        </mxCell>
        <mxCell id="GVfHSsp1LPKBqe8zwPOD-7" value="" style="endArrow=none;dashed=1;html=1;dashPattern=1 3;strokeWidth=2;rounded=0;" edge="1" parent="1">
          <mxGeometry width="50" height="50" relative="1" as="geometry">
            <mxPoint x="40" y="320" as="sourcePoint" />
            <mxPoint x="40" y="130" as="targetPoint" />
          </mxGeometry>
        </mxCell>
        <mxCell id="GVfHSsp1LPKBqe8zwPOD-8" value="" style="endArrow=none;dashed=1;html=1;dashPattern=1 3;strokeWidth=2;rounded=0;" edge="1" parent="1">
          <mxGeometry width="50" height="50" relative="1" as="geometry">
            <mxPoint x="219.76" y="320" as="sourcePoint" />
            <mxPoint x="219.76" y="130" as="targetPoint" />
          </mxGeometry>
        </mxCell>
        <mxCell id="GVfHSsp1LPKBqe8zwPOD-9" value="" style="endArrow=none;dashed=1;html=1;dashPattern=1 3;strokeWidth=2;rounded=0;" edge="1" parent="1">
          <mxGeometry width="50" height="50" relative="1" as="geometry">
            <mxPoint x="380" y="320" as="sourcePoint" />
            <mxPoint x="379.76" y="130" as="targetPoint" />
          </mxGeometry>
        </mxCell>
        <mxCell id="GVfHSsp1LPKBqe8zwPOD-10" value="" style="endArrow=none;dashed=1;html=1;dashPattern=1 3;strokeWidth=2;rounded=0;" edge="1" parent="1">
          <mxGeometry width="50" height="50" relative="1" as="geometry">
            <mxPoint x="539.76" y="320" as="sourcePoint" />
            <mxPoint x="539.76" y="130" as="targetPoint" />
          </mxGeometry>
        </mxCell>
        <mxCell id="GVfHSsp1LPKBqe8zwPOD-13" value="" style="endArrow=none;dashed=1;html=1;dashPattern=1 3;strokeWidth=2;rounded=0;" edge="1" parent="1">
          <mxGeometry width="50" height="50" relative="1" as="geometry">
            <mxPoint x="700" y="320" as="sourcePoint" />
            <mxPoint x="699.76" y="130" as="targetPoint" />
          </mxGeometry>
        </mxCell>
        <mxCell id="GVfHSsp1LPKBqe8zwPOD-15" value="" style="shape=datastore;whiteSpace=wrap;html=1;" vertex="1" parent="1">
          <mxGeometry x="20" y="340" width="60" height="60" as="geometry" />
        </mxCell>
        <mxCell id="GVfHSsp1LPKBqe8zwPOD-16" value="" style="shape=datastore;whiteSpace=wrap;html=1;" vertex="1" parent="1">
          <mxGeometry x="190" y="340" width="60" height="60" as="geometry" />
        </mxCell>
        <mxCell id="GVfHSsp1LPKBqe8zwPOD-17" value="" style="shape=datastore;whiteSpace=wrap;html=1;" vertex="1" parent="1">
          <mxGeometry x="350" y="340" width="60" height="60" as="geometry" />
        </mxCell>
        <mxCell id="GVfHSsp1LPKBqe8zwPOD-18" value="" style="shape=datastore;whiteSpace=wrap;html=1;" vertex="1" parent="1">
          <mxGeometry x="510" y="340" width="60" height="60" as="geometry" />
        </mxCell>
        <mxCell id="GVfHSsp1LPKBqe8zwPOD-21" value="" style="shape=flexArrow;endArrow=classic;html=1;rounded=0;width=30;endSize=6.3;fillColor=none;" edge="1" parent="1">
          <mxGeometry width="50" height="50" relative="1" as="geometry">
            <mxPoint x="40" y="200" as="sourcePoint" />
            <mxPoint x="830" y="200" as="targetPoint" />
          </mxGeometry>
        </mxCell>
        <mxCell id="GVfHSsp1LPKBqe8zwPOD-22" value="Events poured into the bucket" style="text;strokeColor=none;align=center;fillColor=none;html=1;verticalAlign=middle;whiteSpace=wrap;rounded=0;" vertex="1" parent="1">
          <mxGeometry x="20" y="150" width="210" height="30" as="geometry" />
        </mxCell>
        <mxCell id="GVfHSsp1LPKBqe8zwPOD-23" value="" style="ellipse;shape=doubleEllipse;whiteSpace=wrap;html=1;aspect=fixed;fillColor=#FF0000;" vertex="1" parent="1">
          <mxGeometry x="30" y="180" width="40" height="40" as="geometry" />
        </mxCell>
        <mxCell id="GVfHSsp1LPKBqe8zwPOD-27" value="E0" style="text;strokeColor=none;align=center;fillColor=none;html=1;verticalAlign=middle;whiteSpace=wrap;rounded=0;" vertex="1" parent="1">
          <mxGeometry x="20" y="185" width="60" height="30" as="geometry" />
        </mxCell>
        <mxCell id="GVfHSsp1LPKBqe8zwPOD-30" value="" style="ellipse;shape=doubleEllipse;whiteSpace=wrap;html=1;aspect=fixed;fillColor=#FF0000;" vertex="1" parent="1">
          <mxGeometry x="150" y="180" width="40" height="40" as="geometry" />
        </mxCell>
        <mxCell id="GVfHSsp1LPKBqe8zwPOD-31" value="E1" style="text;strokeColor=none;align=center;fillColor=none;html=1;verticalAlign=middle;whiteSpace=wrap;rounded=0;" vertex="1" parent="1">
          <mxGeometry x="140" y="185" width="60" height="30" as="geometry" />
        </mxCell>
        <mxCell id="GVfHSsp1LPKBqe8zwPOD-32" value="" style="ellipse;shape=doubleEllipse;whiteSpace=wrap;html=1;aspect=fixed;fillColor=#FF0000;" vertex="1" parent="1">
          <mxGeometry x="400" y="180" width="40" height="40" as="geometry" />
        </mxCell>
        <mxCell id="GVfHSsp1LPKBqe8zwPOD-33" value="E3" style="text;strokeColor=none;align=center;fillColor=none;html=1;verticalAlign=middle;whiteSpace=wrap;rounded=0;" vertex="1" parent="1">
          <mxGeometry x="390" y="185" width="60" height="30" as="geometry" />
        </mxCell>
        <mxCell id="GVfHSsp1LPKBqe8zwPOD-34" value="" style="ellipse;shape=doubleEllipse;whiteSpace=wrap;html=1;aspect=fixed;fillColor=#FF0000;" vertex="1" parent="1">
          <mxGeometry x="480" y="180" width="40" height="40" as="geometry" />
        </mxCell>
        <mxCell id="GVfHSsp1LPKBqe8zwPOD-35" value="E4" style="text;strokeColor=none;align=center;fillColor=none;html=1;verticalAlign=middle;whiteSpace=wrap;rounded=0;" vertex="1" parent="1">
          <mxGeometry x="470" y="185" width="60" height="30" as="geometry" />
        </mxCell>
        <mxCell id="GVfHSsp1LPKBqe8zwPOD-36" value="" style="ellipse;shape=doubleEllipse;whiteSpace=wrap;html=1;aspect=fixed;fillColor=#FF0000;" vertex="1" parent="1">
          <mxGeometry x="250" y="180" width="40" height="40" as="geometry" />
        </mxCell>
        <mxCell id="GVfHSsp1LPKBqe8zwPOD-37" value="E2" style="text;strokeColor=none;align=center;fillColor=none;html=1;verticalAlign=middle;whiteSpace=wrap;rounded=0;" vertex="1" parent="1">
          <mxGeometry x="240" y="185" width="60" height="30" as="geometry" />
        </mxCell>
        <mxCell id="GVfHSsp1LPKBqe8zwPOD-56" value="OVERFLOW" style="shape=ext;double=1;whiteSpace=wrap;html=1;aspect=fixed;fillColor=#a20025;fontColor=#ffffff;strokeColor=#6F0000;" vertex="1" parent="1">
          <mxGeometry x="720" y="240" width="80" height="80" as="geometry" />
        </mxCell>
        <mxCell id="GVfHSsp1LPKBqe8zwPOD-59" value="" style="shape=datastore;whiteSpace=wrap;html=1;" vertex="1" parent="1">
          <mxGeometry x="670" y="340" width="60" height="60" as="geometry" />
        </mxCell>
        <mxCell id="GVfHSsp1LPKBqe8zwPOD-61" value="" style="ellipse;shape=doubleEllipse;whiteSpace=wrap;html=1;aspect=fixed;fillColor=#FF0000;" vertex="1" parent="1">
          <mxGeometry x="630" y="180" width="40" height="40" as="geometry" />
        </mxCell>
        <mxCell id="GVfHSsp1LPKBqe8zwPOD-62" value="E5" style="text;strokeColor=none;align=center;fillColor=none;html=1;verticalAlign=middle;whiteSpace=wrap;rounded=0;" vertex="1" parent="1">
          <mxGeometry x="620" y="185" width="60" height="30" as="geometry" />
        </mxCell>
        <mxCell id="GVfHSsp1LPKBqe8zwPOD-63" value="" style="ellipse;shape=doubleEllipse;whiteSpace=wrap;html=1;aspect=fixed;fillColor=#00FF00;" vertex="1" parent="1">
          <mxGeometry x="740" y="180" width="40" height="40" as="geometry" />
        </mxCell>
        <mxCell id="GVfHSsp1LPKBqe8zwPOD-64" value="E5" style="text;strokeColor=none;align=center;fillColor=none;html=1;verticalAlign=middle;whiteSpace=wrap;rounded=0;" vertex="1" parent="1">
          <mxGeometry x="730" y="185" width="60" height="30" as="geometry" />
        </mxCell>
        <mxCell id="GVfHSsp1LPKBqe8zwPOD-65" value="" style="endArrow=none;dashed=1;html=1;dashPattern=1 3;strokeWidth=2;rounded=0;" edge="1" parent="1">
          <mxGeometry width="50" height="50" relative="1" as="geometry">
            <mxPoint x="760" y="240" as="sourcePoint" />
            <mxPoint x="759.76" y="215" as="targetPoint" />
          </mxGeometry>
        </mxCell>
        <mxCell id="GVfHSsp1LPKBqe8zwPOD-67" value="" style="ellipse;shape=doubleEllipse;whiteSpace=wrap;html=1;aspect=fixed;fillColor=#FF0000;" vertex="1" parent="1">
          <mxGeometry x="40" width="40" height="40" as="geometry" />
        </mxCell>
        <mxCell id="GVfHSsp1LPKBqe8zwPOD-69" value="" style="ellipse;shape=doubleEllipse;whiteSpace=wrap;html=1;aspect=fixed;fillColor=#00FF00;" vertex="1" parent="1">
          <mxGeometry x="40" y="50" width="40" height="40" as="geometry" />
        </mxCell>
        <mxCell id="GVfHSsp1LPKBqe8zwPOD-71" value="Failed ssh auth" style="text;html=1;align=center;verticalAlign=middle;resizable=0;points=[];autosize=1;strokeColor=none;fillColor=none;" vertex="1" parent="1">
          <mxGeometry x="80" y="5" width="100" height="30" as="geometry" />
        </mxCell>
        <mxCell id="GVfHSsp1LPKBqe8zwPOD-72" value="Successful ssh auth" style="text;html=1;align=center;verticalAlign=middle;resizable=0;points=[];autosize=1;strokeColor=none;fillColor=none;" vertex="1" parent="1">
          <mxGeometry x="80" y="55" width="130" height="30" as="geometry" />
        </mxCell>
        <mxCell id="GVfHSsp1LPKBqe8zwPOD-73" value="" style="ellipse;shape=doubleEllipse;whiteSpace=wrap;html=1;aspect=fixed;fillColor=#FF0000;" vertex="1" parent="1">
          <mxGeometry x="20" y="410" width="40" height="40" as="geometry" />
        </mxCell>
        <mxCell id="GVfHSsp1LPKBqe8zwPOD-74" value="" style="ellipse;shape=doubleEllipse;whiteSpace=wrap;html=1;aspect=fixed;fillColor=#00FF00;" vertex="1" parent="1">
          <mxGeometry x="20" y="460" width="40" height="40" as="geometry" />
        </mxCell>
        <mxCell id="GVfHSsp1LPKBqe8zwPOD-75" value="&lt;div&gt;Count: 1&lt;/div&gt;&lt;div&gt;false&lt;br&gt;&lt;/div&gt;" style="text;html=1;align=center;verticalAlign=middle;resizable=0;points=[];autosize=1;strokeColor=none;fillColor=none;" vertex="1" parent="1">
          <mxGeometry x="75" y="410" width="70" height="40" as="geometry" />
        </mxCell>
        <mxCell id="GVfHSsp1LPKBqe8zwPOD-76" value="&lt;div&gt;Count: 0&lt;/div&gt;false" style="text;html=1;align=center;verticalAlign=middle;resizable=0;points=[];autosize=1;strokeColor=none;fillColor=none;" vertex="1" parent="1">
          <mxGeometry x="75" y="460" width="70" height="40" as="geometry" />
        </mxCell>
        <mxCell id="GVfHSsp1LPKBqe8zwPOD-81" value="" style="ellipse;shape=doubleEllipse;whiteSpace=wrap;html=1;aspect=fixed;fillColor=#FF0000;" vertex="1" parent="1">
          <mxGeometry x="190" y="410" width="40" height="40" as="geometry" />
        </mxCell>
        <mxCell id="GVfHSsp1LPKBqe8zwPOD-82" value="" style="ellipse;shape=doubleEllipse;whiteSpace=wrap;html=1;aspect=fixed;fillColor=#00FF00;" vertex="1" parent="1">
          <mxGeometry x="190" y="460" width="40" height="40" as="geometry" />
        </mxCell>
        <mxCell id="GVfHSsp1LPKBqe8zwPOD-83" value="&lt;div&gt;Count: 2&lt;br&gt;&lt;/div&gt;false" style="text;html=1;align=center;verticalAlign=middle;resizable=0;points=[];autosize=1;strokeColor=none;fillColor=none;" vertex="1" parent="1">
          <mxGeometry x="245" y="410" width="70" height="40" as="geometry" />
        </mxCell>
        <mxCell id="GVfHSsp1LPKBqe8zwPOD-84" value="&lt;div&gt;Count: 0&lt;/div&gt;&lt;div&gt;false&lt;br&gt;&lt;/div&gt;" style="text;html=1;align=center;verticalAlign=middle;resizable=0;points=[];autosize=1;strokeColor=none;fillColor=none;" vertex="1" parent="1">
          <mxGeometry x="245" y="460" width="70" height="40" as="geometry" />
        </mxCell>
        <mxCell id="GVfHSsp1LPKBqe8zwPOD-85" value="" style="ellipse;shape=doubleEllipse;whiteSpace=wrap;html=1;aspect=fixed;fillColor=#FF0000;" vertex="1" parent="1">
          <mxGeometry x="350" y="410" width="40" height="40" as="geometry" />
        </mxCell>
        <mxCell id="GVfHSsp1LPKBqe8zwPOD-86" value="" style="ellipse;shape=doubleEllipse;whiteSpace=wrap;html=1;aspect=fixed;fillColor=#00FF00;" vertex="1" parent="1">
          <mxGeometry x="350" y="460" width="40" height="40" as="geometry" />
        </mxCell>
        <mxCell id="GVfHSsp1LPKBqe8zwPOD-87" value="&lt;div&gt;Count: 3&lt;br&gt;&lt;/div&gt;false" style="text;html=1;align=center;verticalAlign=middle;resizable=0;points=[];autosize=1;strokeColor=none;fillColor=none;" vertex="1" parent="1">
          <mxGeometry x="405" y="410" width="70" height="40" as="geometry" />
        </mxCell>
        <mxCell id="GVfHSsp1LPKBqe8zwPOD-88" value="&lt;div&gt;Count: 0&lt;/div&gt;&lt;div&gt;false&lt;br&gt;&lt;/div&gt;" style="text;html=1;align=center;verticalAlign=middle;resizable=0;points=[];autosize=1;strokeColor=none;fillColor=none;" vertex="1" parent="1">
          <mxGeometry x="405" y="460" width="70" height="40" as="geometry" />
        </mxCell>
        <mxCell id="GVfHSsp1LPKBqe8zwPOD-89" value="" style="ellipse;shape=doubleEllipse;whiteSpace=wrap;html=1;aspect=fixed;fillColor=#FF0000;" vertex="1" parent="1">
          <mxGeometry x="510" y="410" width="40" height="40" as="geometry" />
        </mxCell>
        <mxCell id="GVfHSsp1LPKBqe8zwPOD-90" value="" style="ellipse;shape=doubleEllipse;whiteSpace=wrap;html=1;aspect=fixed;fillColor=#00FF00;" vertex="1" parent="1">
          <mxGeometry x="510" y="460" width="40" height="40" as="geometry" />
        </mxCell>
        <mxCell id="GVfHSsp1LPKBqe8zwPOD-91" value="&lt;div&gt;Count: 5&lt;br&gt;&lt;/div&gt;true" style="text;html=1;align=center;verticalAlign=middle;resizable=0;points=[];autosize=1;strokeColor=none;fillColor=none;" vertex="1" parent="1">
          <mxGeometry x="565" y="410" width="70" height="40" as="geometry" />
        </mxCell>
        <mxCell id="GVfHSsp1LPKBqe8zwPOD-92" value="&lt;div&gt;Count: 0&lt;/div&gt;&lt;div&gt;false&lt;br&gt;&lt;/div&gt;" style="text;html=1;align=center;verticalAlign=middle;resizable=0;points=[];autosize=1;strokeColor=none;fillColor=none;" vertex="1" parent="1">
          <mxGeometry x="565" y="460" width="70" height="40" as="geometry" />
        </mxCell>
        <mxCell id="GVfHSsp1LPKBqe8zwPOD-93" value="" style="ellipse;shape=doubleEllipse;whiteSpace=wrap;html=1;aspect=fixed;fillColor=#FF0000;" vertex="1" parent="1">
          <mxGeometry x="670" y="410" width="40" height="40" as="geometry" />
        </mxCell>
        <mxCell id="GVfHSsp1LPKBqe8zwPOD-94" value="" style="ellipse;shape=doubleEllipse;whiteSpace=wrap;html=1;aspect=fixed;fillColor=#00FF00;" vertex="1" parent="1">
          <mxGeometry x="670" y="460" width="40" height="40" as="geometry" />
        </mxCell>
        <mxCell id="GVfHSsp1LPKBqe8zwPOD-95" value="&lt;div&gt;Count: 6&lt;br&gt;&lt;/div&gt;true" style="text;html=1;align=center;verticalAlign=middle;resizable=0;points=[];autosize=1;strokeColor=none;fillColor=none;" vertex="1" parent="1">
          <mxGeometry x="725" y="410" width="70" height="40" as="geometry" />
        </mxCell>
        <mxCell id="GVfHSsp1LPKBqe8zwPOD-96" value="&lt;div&gt;Count: 0&lt;/div&gt;&lt;div&gt;false&lt;br&gt;&lt;/div&gt;" style="text;html=1;align=center;verticalAlign=middle;resizable=0;points=[];autosize=1;strokeColor=none;fillColor=none;" vertex="1" parent="1">
          <mxGeometry x="725" y="460" width="70" height="40" as="geometry" />
        </mxCell>
      </root>
    </mxGraphModel>
  </diagram>
</mxfile>
